<svg xmlns="http://www.w3.org/2000/svg" viewBox="0 0 800 500" width="100%" height="100%">
  <defs>
    <linearGradient id="bgGrad2" x1="0%" y1="0%" x2="100%" y2="100%">
      <stop offset="0%" stop-color="#1d1d1c"/>
      <stop offset="60%" stop-color="#272624"/>
      <stop offset="100%" stop-color="#171716"/>
    </linearGradient>
    <linearGradient id="sandGrad" x1="0%" y1="0%" x2="100%" y2="100%">
      <stop offset="0%" stop-color="#cebfa9"/>
      <stop offset="100%" stop-color="#9e8f77"/>
    </linearGradient>
    <filter id="shadow2" x="-10%" y="-10%" width="120%" height="120%">
      <feDropShadow dx="0" dy="12" stdDeviation="16" flood-color="#000000" flood-opacity="0.6"/>
    </filter>
  </defs>

  <rect width="800" height="500" fill="url(#bgGrad2)"/>
  <circle cx="700" cy="100" r="250" fill="#cebfa9" opacity="0.05" filter="blur(40px)"/>
  <circle cx="100" cy="450" r="200" fill="#4f5343" opacity="0.1" filter="blur(50px)"/>

  <g filter="url(#shadow2)" transform="translate(60, 45)">
    <rect width="680" height="410" rx="16" fill="#1e1e1d" stroke="#cebfa9" stroke-opacity="0.15" stroke-width="1"/>
    
    <path d="M 0,16 Q 0,0 16,0 L 664,0 Q 680,0 680,16 L 680,48 L 0,48 Z" fill="#262624"/>
    <circle cx="24" cy="24" r="5" fill="#ef4444" opacity="0.8"/>
    <circle cx="42" cy="24" r="5" fill="#f59e0b" opacity="0.8"/>
    <circle cx="60" cy="24" r="5" fill="#10b981" opacity="0.8"/>
    
    <rect x="180" y="12" width="320" height="24" rx="12" fill="#171716" stroke="#cebfa9" stroke-opacity="0.1"/>
    <text x="340" y="28" fill="#cebfa9" font-family="sans-serif" font-size="11" text-anchor="middle">coff-specialty.com/menu</text>

    <g transform="translate(30, 70)">
      <text x="0" y="26" fill="#e2dcd0" font-family="Georgia, serif" font-size="24" font-weight="600" letter-spacing="2">CØFF</text>
      <text x="0" y="46" fill="#cebfa9" font-family="sans-serif" font-size="10" letter-spacing="2">CAFÉ DE ESPECIALIDADE &amp; ROASTERY</text>

      <g transform="translate(0, 75)">
        <rect width="295" height="245" rx="12" fill="#262624" stroke="#cebfa9" stroke-opacity="0.12"/>
        <rect x="20" y="20" width="50" height="50" rx="25" fill="#cebfa9" fill-opacity="0.15"/>
        <path d="M 38,36 C 35,46 55,46 52,36 Z M 52,39 C 55,39 57,41 55,44 C 53,46 52,45 52,43" stroke="#cebfa9" stroke-width="2" fill="none"/>
        <text x="85" y="38" fill="#ffffff" font-family="sans-serif" font-size="15" font-weight="600">Origem Etiópia Yirgacheffe</text>
        <text x="85" y="58" fill="#cebfa9" font-family="sans-serif" font-size="11">Notas florais, jasmim e bergamota</text>
        
        <path d="M 20,85 L 275,85" stroke="#ffffff" stroke-opacity="0.06" stroke-width="1"/>
        <text x="20" y="115" fill="#94a3b8" font-family="sans-serif" font-size="11">Método de Extração</text>
        <rect x="20" y="128" width="65" height="24" rx="4" fill="#333330"/>
        <text x="52" y="144" fill="#e2dcd0" font-family="sans-serif" font-size="10" text-anchor="middle">V60 Drip</text>
        <rect x="92" y="128" width="75" height="24" rx="4" fill="#333330"/>
        <text x="129" y="144" fill="#e2dcd0" font-family="sans-serif" font-size="10" text-anchor="middle">Aeropress</text>
        <rect x="174" y="128" width="65" height="24" rx="4" fill="#333330"/>
        <text x="206" y="144" fill="#e2dcd0" font-family="sans-serif" font-size="10" text-anchor="middle">Chemex</text>
        
        <text x="20" y="190" fill="#cebfa9" font-family="sans-serif" font-size="20" font-weight="700">€ 4,50 / R$ 26,00</text>
        <rect x="20" y="205" width="255" height="26" rx="6" fill="#cebfa9"/>
        <text x="147" y="222" fill="#1d1d1c" font-family="sans-serif" font-size="11" font-weight="700" text-anchor="middle">EXPERIMENTAR NA MESA</text>
      </g>

      <g transform="translate(315, 75)">
        <rect width="305" height="245" rx="12" fill="#222220" stroke="#cebfa9" stroke-opacity="0.1"/>
        <text x="20" y="35" fill="#e2dcd0" font-family="sans-serif" font-size="14" font-weight="600">Cardápio Digital Interativo</text>
        <text x="20" y="55" fill="#94a3b8" font-family="sans-serif" font-size="11">Atualização dinâmica em tempo real</text>
        
        <g transform="translate(20, 75)">
          <rect width="265" height="42" rx="8" fill="#2b2b28"/>
          <text x="15" y="25" fill="#ffffff" font-family="sans-serif" font-size="12" font-weight="600">Cold Brew Citrus Infusion</text>
          <text x="245" y="25" fill="#cebfa9" font-family="sans-serif" font-size="12" font-weight="700" text-anchor="end">€ 4,80</text>
        </g>
        <g transform="translate(20, 125)">
          <rect width="265" height="42" rx="8" fill="#2b2b28"/>
          <text x="15" y="25" fill="#ffffff" font-family="sans-serif" font-size="12" font-weight="600">Flat White c/ Leite de Aveia</text>
          <text x="245" y="25" fill="#cebfa9" font-family="sans-serif" font-size="12" font-weight="700" text-anchor="end">€ 3,90</text>
        </g>
        <g transform="translate(20, 175)">
          <rect width="265" height="42" rx="8" fill="#2b2b28"/>
          <text x="15" y="25" fill="#ffffff" font-family="sans-serif" font-size="12" font-weight="600">Croissant Artesanal Fermentação</text>
          <text x="245" y="25" fill="#cebfa9" font-family="sans-serif" font-size="12" font-weight="700" text-anchor="end">€ 3,50</text>
        </g>
      </g>
    </g>
  </g>
</svg>